<svg xmlns="http://www.w3.org/2000/svg" xmlns:xlink="http://www.w3.org/1999/xlink" width="554" zoomAndPan="magnify" viewBox="0 0 415.5 166.499995" height="222" preserveAspectRatio="xMidYMid meet" version="1.0"><defs><g/><clipPath id="0332cc40e7"><path d="M 154 0 L 258 0 L 258 51.90625 L 154 51.90625 Z M 154 0 " clip-rule="nonzero"/></clipPath><clipPath id="20a8803045"><path d="M 198 45 L 205 45 L 205 51.90625 L 198 51.90625 Z M 198 45 " clip-rule="nonzero"/></clipPath><clipPath id="d6564626f1"><path d="M 207 45 L 214 45 L 214 51.90625 L 207 51.90625 Z M 207 45 " clip-rule="nonzero"/></clipPath><clipPath id="55c1808e21"><path d="M 64.132812 20 L 171 20 L 171 51.90625 L 64.132812 51.90625 Z M 64.132812 20 " clip-rule="nonzero"/></clipPath><clipPath id="5cc66cfbd1"><path d="M 241 20 L 347.964844 20 L 347.964844 51.90625 L 241 51.90625 Z M 241 20 " clip-rule="nonzero"/></clipPath><clipPath id="ab4055bbc4"><path d="M 134.578125 142.960938 L 152.25 142.960938 L 152.25 160.632812 L 134.578125 160.632812 Z M 134.578125 142.960938 " clip-rule="nonzero"/></clipPath></defs><g fill="#f97316" fill-opacity="1"><g transform="translate(135.322351, 134.905709)"><g><path d="M 9.5625 -14.546875 C 8.175781 -14.546875 7.101562 -14.023438 6.34375 -12.984375 C 5.582031 -11.941406 5.203125 -10.492188 5.203125 -8.640625 C 5.203125 -4.765625 6.65625 -2.828125 9.5625 -2.828125 C 10.78125 -2.828125 12.257812 -3.128906 14 -3.734375 L 14 -0.65625 C 12.570312 -0.0625 10.976562 0.234375 9.21875 0.234375 C 6.6875 0.234375 4.75 -0.53125 3.40625 -2.0625 C 2.070312 -3.59375 1.40625 -5.789062 1.40625 -8.65625 C 1.40625 -10.46875 1.734375 -12.050781 2.390625 -13.40625 C 3.054688 -14.757812 4.003906 -15.796875 5.234375 -16.515625 C 6.460938 -17.242188 7.90625 -17.609375 9.5625 -17.609375 C 11.25 -17.609375 12.941406 -17.203125 14.640625 -16.390625 L 13.453125 -13.40625 C 12.804688 -13.707031 12.15625 -13.972656 11.5 -14.203125 C 10.84375 -14.429688 10.195312 -14.546875 9.5625 -14.546875 Z M 9.5625 -14.546875 "/></g></g></g><g fill="#f97316" fill-opacity="1"><g transform="translate(154.003153, 134.905709)"><g><path d="M 12.8125 0 L 11.5625 -4.140625 L 5.234375 -4.140625 L 3.96875 0 L 0 0 L 6.125 -17.4375 L 10.625 -17.4375 L 16.78125 0 Z M 10.671875 -7.21875 C 9.515625 -10.96875 8.863281 -13.085938 8.71875 -13.578125 C 8.570312 -14.066406 8.460938 -14.453125 8.390625 -14.734375 C 8.128906 -13.722656 7.382812 -11.21875 6.15625 -7.21875 Z M 10.671875 -7.21875 "/></g></g></g><g fill="#f97316" fill-opacity="1"><g transform="translate(173.966153, 134.905709)"><g><path d="M 9.53125 0 L 5.359375 -13.625 L 5.25 -13.625 C 5.394531 -10.851562 5.46875 -9.003906 5.46875 -8.078125 L 5.46875 0 L 2.1875 0 L 2.1875 -17.359375 L 7.203125 -17.359375 L 11.3125 -4.09375 L 11.375 -4.09375 L 15.734375 -17.359375 L 20.75 -17.359375 L 20.75 0 L 17.3125 0 L 17.3125 -8.21875 C 17.3125 -8.601562 17.316406 -9.050781 17.328125 -9.5625 C 17.347656 -10.070312 17.40625 -11.414062 17.5 -13.59375 L 17.390625 -13.59375 L 12.90625 0 Z M 9.53125 0 "/></g></g></g><g fill="#f97316" fill-opacity="1"><g transform="translate(200.07895, 134.905709)"><g><path d="M 12.8125 0 L 11.5625 -4.140625 L 5.234375 -4.140625 L 3.96875 0 L 0 0 L 6.125 -17.4375 L 10.625 -17.4375 L 16.78125 0 Z M 10.671875 -7.21875 C 9.515625 -10.96875 8.863281 -13.085938 8.71875 -13.578125 C 8.570312 -14.066406 8.460938 -14.453125 8.390625 -14.734375 C 8.128906 -13.722656 7.382812 -11.21875 6.15625 -7.21875 Z M 10.671875 -7.21875 "/></g></g></g><g fill="#f97316" fill-opacity="1"><g transform="translate(220.04195, 134.905709)"><g><path d="M 5.875 -9.65625 L 7.0625 -9.65625 C 8.21875 -9.65625 9.070312 -9.847656 9.625 -10.234375 C 10.1875 -10.628906 10.46875 -11.238281 10.46875 -12.0625 C 10.46875 -12.882812 10.179688 -13.46875 9.609375 -13.8125 C 9.046875 -14.164062 8.171875 -14.34375 6.984375 -14.34375 L 5.875 -14.34375 Z M 5.875 -6.671875 L 5.875 0 L 2.1875 0 L 2.1875 -17.359375 L 7.25 -17.359375 C 9.601562 -17.359375 11.347656 -16.929688 12.484375 -16.078125 C 13.617188 -15.222656 14.1875 -13.921875 14.1875 -12.171875 C 14.1875 -11.140625 13.90625 -10.226562 13.34375 -9.4375 C 12.78125 -8.644531 11.984375 -8.019531 10.953125 -7.5625 C 13.566406 -3.65625 15.269531 -1.132812 16.0625 0 L 11.96875 0 L 7.828125 -6.671875 Z M 5.875 -6.671875 "/></g></g></g><g fill="#f97316" fill-opacity="1"><g transform="translate(239.280737, 134.905709)"><g><path d="M 8.78125 -9.75 L 15.671875 -9.75 L 15.671875 -0.75 C 14.554688 -0.382812 13.503906 -0.128906 12.515625 0.015625 C 11.523438 0.160156 10.515625 0.234375 9.484375 0.234375 C 6.867188 0.234375 4.867188 -0.535156 3.484375 -2.078125 C 2.097656 -3.617188 1.40625 -5.828125 1.40625 -8.703125 C 1.40625 -11.503906 2.207031 -13.6875 3.8125 -15.25 C 5.414062 -16.820312 7.640625 -17.609375 10.484375 -17.609375 C 12.265625 -17.609375 13.984375 -17.253906 15.640625 -16.546875 L 14.421875 -13.59375 C 13.148438 -14.226562 11.832031 -14.546875 10.46875 -14.546875 C 8.875 -14.546875 7.597656 -14.007812 6.640625 -12.9375 C 5.679688 -11.875 5.203125 -10.441406 5.203125 -8.640625 C 5.203125 -6.753906 5.585938 -5.3125 6.359375 -4.3125 C 7.128906 -3.320312 8.253906 -2.828125 9.734375 -2.828125 C 10.492188 -2.828125 11.269531 -2.90625 12.0625 -3.0625 L 12.0625 -6.6875 L 8.78125 -6.6875 Z M 8.78125 -9.75 "/></g></g></g><g fill="#f97316" fill-opacity="1"><g transform="translate(260.074791, 134.905709)"><g><path d="M 17.953125 -8.703125 C 17.953125 -5.828125 17.238281 -3.617188 15.8125 -2.078125 C 14.382812 -0.535156 12.34375 0.234375 9.6875 0.234375 C 7.019531 0.234375 4.972656 -0.535156 3.546875 -2.078125 C 2.117188 -3.617188 1.40625 -5.835938 1.40625 -8.734375 C 1.40625 -11.617188 2.117188 -13.820312 3.546875 -15.34375 C 4.984375 -16.875 7.035156 -17.640625 9.703125 -17.640625 C 12.367188 -17.640625 14.410156 -16.867188 15.828125 -15.328125 C 17.242188 -13.796875 17.953125 -11.585938 17.953125 -8.703125 Z M 5.28125 -8.703125 C 5.28125 -6.765625 5.644531 -5.300781 6.375 -4.3125 C 7.113281 -3.332031 8.21875 -2.84375 9.6875 -2.84375 C 12.625 -2.84375 14.09375 -4.796875 14.09375 -8.703125 C 14.09375 -12.617188 12.628906 -14.578125 9.703125 -14.578125 C 8.234375 -14.578125 7.128906 -14.082031 6.390625 -13.09375 C 5.648438 -12.113281 5.28125 -10.648438 5.28125 -8.703125 Z M 5.28125 -8.703125 "/></g></g></g><g fill="#fafafa" fill-opacity="1"><g transform="translate(62.828462, 104.300558)"><g><path d="M 39.328125 -21.421875 C 39.328125 -14.554688 37.4375 -9.269531 33.65625 -5.5625 C 29.882812 -1.851562 24.578125 0 17.734375 0 L 4.4375 0 L 4.4375 -41.09375 L 18.65625 -41.09375 C 25.257812 -41.09375 30.351562 -39.40625 33.9375 -36.03125 C 37.53125 -32.65625 39.328125 -27.785156 39.328125 -21.421875 Z M 27.796875 -21.03125 C 27.796875 -24.789062 27.050781 -27.578125 25.5625 -29.390625 C 24.070312 -31.210938 21.8125 -32.125 18.78125 -32.125 L 15.546875 -32.125 L 15.546875 -9.109375 L 18.015625 -9.109375 C 21.390625 -9.109375 23.863281 -10.085938 25.4375 -12.046875 C 27.007812 -14.003906 27.796875 -17 27.796875 -21.03125 Z M 27.796875 -21.03125 "/></g></g></g><g fill="#fafafa" fill-opacity="1"><g transform="translate(105.056953, 104.300558)"><g><path d="M 28.84375 0 L 4.4375 0 L 4.4375 -41.09375 L 28.84375 -41.09375 L 28.84375 -32.1875 L 15.546875 -32.1875 L 15.546875 -25.71875 L 27.859375 -25.71875 L 27.859375 -16.8125 L 15.546875 -16.8125 L 15.546875 -9.046875 L 28.84375 -9.046875 Z M 28.84375 0 "/></g></g></g><g fill="#fafafa" fill-opacity="1"><g transform="translate(136.637002, 104.300558)"><g><path d="M 34.265625 -28.015625 C 34.265625 -23.429688 32.910156 -19.882812 30.203125 -17.375 C 27.492188 -14.875 23.644531 -13.625 18.65625 -13.625 L 15.546875 -13.625 L 15.546875 0 L 4.4375 0 L 4.4375 -41.09375 L 18.65625 -41.09375 C 23.851562 -41.09375 27.753906 -39.957031 30.359375 -37.6875 C 32.960938 -35.425781 34.265625 -32.203125 34.265625 -28.015625 Z M 15.546875 -22.6875 L 17.5625 -22.6875 C 19.226562 -22.6875 20.550781 -23.15625 21.53125 -24.09375 C 22.519531 -25.03125 23.015625 -26.320312 23.015625 -27.96875 C 23.015625 -30.738281 21.476562 -32.125 18.40625 -32.125 L 15.546875 -32.125 Z M 15.546875 -22.6875 "/></g></g></g><g fill="#fafafa" fill-opacity="1"><g transform="translate(172.993392, 104.300558)"><g><path d="M 42.890625 -20.609375 C 42.890625 -13.691406 41.191406 -8.429688 37.796875 -4.828125 C 34.410156 -1.234375 29.445312 0.5625 22.90625 0.5625 C 16.457031 0.5625 11.515625 -1.242188 8.078125 -4.859375 C 4.640625 -8.472656 2.921875 -13.738281 2.921875 -20.65625 C 2.921875 -27.5 4.628906 -32.722656 8.046875 -36.328125 C 11.472656 -39.929688 16.445312 -41.734375 22.96875 -41.734375 C 29.5 -41.734375 34.453125 -39.941406 37.828125 -36.359375 C 41.203125 -32.785156 42.890625 -27.535156 42.890625 -20.609375 Z M 14.609375 -20.609375 C 14.609375 -12.660156 17.375 -8.6875 22.90625 -8.6875 C 25.71875 -8.6875 27.800781 -9.648438 29.15625 -11.578125 C 30.519531 -13.503906 31.203125 -16.515625 31.203125 -20.609375 C 31.203125 -24.703125 30.507812 -27.726562 29.125 -29.6875 C 27.75 -31.644531 25.695312 -32.625 22.96875 -32.625 C 17.394531 -32.625 14.609375 -28.617188 14.609375 -20.609375 Z M 14.609375 -20.609375 "/></g></g></g><g fill="#fafafa" fill-opacity="1"><g transform="translate(218.846275, 104.300558)"><g><path d="M 31.3125 -12.484375 C 31.3125 -9.929688 30.664062 -7.664062 29.375 -5.6875 C 28.082031 -3.707031 26.21875 -2.171875 23.78125 -1.078125 C 21.34375 0.015625 18.484375 0.5625 15.203125 0.5625 C 12.472656 0.5625 10.175781 0.367188 8.3125 -0.015625 C 6.457031 -0.398438 4.53125 -1.070312 2.53125 -2.03125 L 2.53125 -11.921875 C 4.644531 -10.828125 6.84375 -9.972656 9.125 -9.359375 C 11.414062 -8.753906 13.519531 -8.453125 15.4375 -8.453125 C 17.082031 -8.453125 18.285156 -8.738281 19.046875 -9.3125 C 19.816406 -9.882812 20.203125 -10.625 20.203125 -11.53125 C 20.203125 -12.082031 20.046875 -12.566406 19.734375 -12.984375 C 19.429688 -13.410156 18.9375 -13.835938 18.25 -14.265625 C 17.570312 -14.703125 15.75 -15.585938 12.78125 -16.921875 C 10.101562 -18.140625 8.09375 -19.316406 6.75 -20.453125 C 5.414062 -21.597656 4.425781 -22.910156 3.78125 -24.390625 C 3.132812 -25.867188 2.8125 -27.625 2.8125 -29.65625 C 2.8125 -33.4375 4.1875 -36.382812 6.9375 -38.5 C 9.695312 -40.625 13.484375 -41.6875 18.296875 -41.6875 C 22.546875 -41.6875 26.882812 -40.703125 31.3125 -38.734375 L 27.90625 -30.15625 C 24.0625 -31.914062 20.742188 -32.796875 17.953125 -32.796875 C 16.515625 -32.796875 15.46875 -32.539062 14.8125 -32.03125 C 14.15625 -31.53125 13.828125 -30.90625 13.828125 -30.15625 C 13.828125 -29.351562 14.242188 -28.628906 15.078125 -27.984375 C 15.910156 -27.347656 18.171875 -26.191406 21.859375 -24.515625 C 25.398438 -22.921875 27.859375 -21.207031 29.234375 -19.375 C 30.617188 -17.550781 31.3125 -15.253906 31.3125 -12.484375 Z M 31.3125 -12.484375 "/></g></g></g><g fill="#fafafa" fill-opacity="1"><g transform="translate(252.0559, 104.300558)"><g><path d="M 4.4375 0 L 4.4375 -41.09375 L 15.59375 -41.09375 L 15.59375 0 Z M 4.4375 0 "/></g></g></g><g fill="#fafafa" fill-opacity="1"><g transform="translate(272.088448, 104.300558)"><g><path d="M 22.5625 0 L 11.46875 0 L 11.46875 -32.015625 L 1.4375 -32.015625 L 1.4375 -41.09375 L 32.578125 -41.09375 L 32.578125 -32.015625 L 22.5625 -32.015625 Z M 22.5625 0 "/></g></g></g><g fill="#fafafa" fill-opacity="1"><g transform="translate(306.084763, 104.300558)"><g><path d="M 42.890625 -20.609375 C 42.890625 -13.691406 41.191406 -8.429688 37.796875 -4.828125 C 34.410156 -1.234375 29.445312 0.5625 22.90625 0.5625 C 16.457031 0.5625 11.515625 -1.242188 8.078125 -4.859375 C 4.640625 -8.472656 2.921875 -13.738281 2.921875 -20.65625 C 2.921875 -27.5 4.628906 -32.722656 8.046875 -36.328125 C 11.472656 -39.929688 16.445312 -41.734375 22.96875 -41.734375 C 29.5 -41.734375 34.453125 -39.941406 37.828125 -36.359375 C 41.203125 -32.785156 42.890625 -27.535156 42.890625 -20.609375 Z M 14.609375 -20.609375 C 14.609375 -12.660156 17.375 -8.6875 22.90625 -8.6875 C 25.71875 -8.6875 27.800781 -9.648438 29.15625 -11.578125 C 30.519531 -13.503906 31.203125 -16.515625 31.203125 -20.609375 C 31.203125 -24.703125 30.507812 -27.726562 29.125 -29.6875 C 27.75 -31.644531 25.695312 -32.625 22.96875 -32.625 C 17.394531 -32.625 14.609375 -28.617188 14.609375 -20.609375 Z M 14.609375 -20.609375 "/></g></g></g><g clip-path="url(#0332cc40e7)"><path fill="#f97316" d="M 205.832031 0.0078125 L 226.976562 21.148438 L 228.386719 25.660156 L 228.386719 15.722656 L 235.234375 15.839844 L 235.234375 32.410156 L 235.984375 30.15625 L 257.144531 51.316406 L 243.4375 51.316406 L 205.832031 13.710938 L 168.226562 51.316406 L 154.523438 51.316406 L 205.832031 0.0078125 " fill-opacity="1" fill-rule="nonzero"/></g><g clip-path="url(#20a8803045)"><path fill="#f97316" d="M 204.550781 51.316406 L 198.484375 51.316406 L 198.484375 45.253906 L 204.550781 45.253906 L 204.550781 51.316406 " fill-opacity="1" fill-rule="nonzero"/></g><g clip-path="url(#d6564626f1)"><path fill="#f97316" d="M 213.179688 51.316406 L 207.117188 51.316406 L 207.117188 45.253906 L 213.179688 45.253906 L 213.179688 51.316406 " fill-opacity="1" fill-rule="nonzero"/></g><path fill="#f97316" d="M 204.550781 43.386719 L 198.484375 43.386719 L 198.484375 37.320312 L 204.550781 37.320312 L 204.550781 43.386719 " fill-opacity="1" fill-rule="nonzero"/><path fill="#f97316" d="M 213.179688 43.386719 L 207.117188 43.386719 L 207.117188 37.320312 L 213.179688 37.320312 L 213.179688 43.386719 " fill-opacity="1" fill-rule="nonzero"/><path fill="#f97316" d="M 205.832031 22.953125 L 228.128906 39.660156 L 205.832031 17.363281 L 183.535156 39.660156 L 205.832031 22.953125 " fill-opacity="1" fill-rule="nonzero"/><g clip-path="url(#55c1808e21)"><path fill="#f97316" d="M 143.796875 37.320312 L 142.691406 40.855469 L 142.691406 33.070312 L 137.328125 33.164062 L 137.328125 46.144531 L 136.738281 44.378906 L 132.832031 48.285156 L 64.148438 48.285156 L 64.148438 51.316406 L 140.539062 51.316406 L 160.363281 31.496094 L 165.105469 36.238281 L 170.476562 30.871094 L 160.363281 20.757812 L 143.796875 37.320312 " fill-opacity="1" fill-rule="nonzero"/></g><g clip-path="url(#5cc66cfbd1)"><path fill="#f97316" d="M 278.832031 48.285156 L 274.925781 44.378906 L 274.335938 46.144531 L 274.335938 33.164062 L 268.976562 33.070312 L 268.976562 40.855469 L 267.867188 37.320312 L 251.304688 20.757812 L 241.191406 30.871094 L 246.558594 36.238281 L 251.304688 31.496094 L 271.125 51.316406 L 347.515625 51.316406 L 347.515625 48.285156 L 278.832031 48.285156 " fill-opacity="1" fill-rule="nonzero"/></g><g clip-path="url(#ab4055bbc4)"><path fill="#1ba553" d="M 143.40625 142.980469 C 138.5 142.996094 134.578125 146.976562 134.640625 151.867188 C 134.667969 153.910156 135.328125 155.722656 136.628906 157.300781 C 136.851562 157.574219 136.878906 157.863281 136.703125 158.171875 L 135.945312 159.527344 C 135.738281 159.902344 136.078125 160.34375 136.496094 160.238281 L 139.0625 159.585938 C 139.246094 159.542969 139.425781 159.558594 139.597656 159.640625 C 140.746094 160.199219 141.957031 160.492188 143.234375 160.519531 C 148.167969 160.628906 152.21875 156.699219 152.234375 151.777344 C 152.25 146.910156 148.289062 142.964844 143.40625 142.980469 Z M 143.4375 159.441406 C 142.929688 159.441406 142.429688 159.390625 141.933594 159.292969 C 141.4375 159.191406 140.953125 159.046875 140.484375 158.855469 C 140.019531 158.660156 139.574219 158.425781 139.152344 158.144531 C 138.730469 157.863281 138.34375 157.542969 137.984375 157.1875 C 137.625 156.832031 137.304688 156.441406 137.023438 156.023438 C 136.742188 155.601562 136.507812 155.160156 136.3125 154.691406 C 136.117188 154.226562 135.972656 153.746094 135.875 153.25 C 135.773438 152.753906 135.726562 152.253906 135.726562 151.75 C 135.726562 147.503906 139.179688 144.0625 143.4375 144.0625 C 147.679688 144.0625 151.121094 147.476562 151.148438 151.699219 C 151.175781 155.9375 147.6875 159.441406 143.4375 159.441406 Z M 143.4375 159.441406 " fill-opacity="1" fill-rule="nonzero"/></g><path fill="#1ba553" d="M 142.058594 148.011719 L 142.0625 148.019531 L 142.523438 148.929688 C 142.625 149.128906 142.65625 149.34375 142.617188 149.566406 C 142.574219 149.789062 142.472656 149.976562 142.304688 150.132812 C 142.140625 150.285156 142.039062 150.472656 141.996094 150.695312 C 141.957031 150.914062 141.988281 151.128906 142.085938 151.328125 C 142.363281 151.882812 142.839844 152.644531 143.570312 153.195312 C 143.738281 153.320312 143.925781 153.390625 144.136719 153.398438 C 144.347656 153.410156 144.542969 153.363281 144.722656 153.253906 L 145.019531 153.074219 C 145.300781 152.902344 145.601562 152.875 145.910156 152.992188 L 147.089844 153.4375 C 147.214844 153.488281 147.328125 153.558594 147.425781 153.648438 C 147.527344 153.742188 147.601562 153.851562 147.65625 153.972656 C 147.714844 154.097656 147.742188 154.226562 147.746094 154.359375 C 147.75 154.496094 147.730469 154.625 147.679688 154.753906 C 147.667969 154.789062 147.652344 154.824219 147.632812 154.855469 L 147.308594 155.488281 C 147.199219 155.699219 147.035156 155.855469 146.816406 155.949219 C 146.597656 156.046875 146.375 156.066406 146.140625 156.007812 C 144.292969 155.53125 139.886719 153.871094 139.53125 148.855469 C 139.515625 148.652344 139.558594 148.464844 139.660156 148.285156 C 139.761719 148.109375 139.902344 147.972656 140.082031 147.878906 L 140.683594 147.570312 C 140.804688 147.511719 140.929688 147.472656 141.066406 147.460938 C 141.203125 147.453125 141.332031 147.464844 141.460938 147.507812 C 141.589844 147.550781 141.707031 147.613281 141.8125 147.699219 C 141.914062 147.789062 141.996094 147.890625 142.058594 148.011719 Z M 142.058594 148.011719 " fill-opacity="1" fill-rule="nonzero"/><g fill="#ffffff" fill-opacity="1"><g transform="translate(159.256865, 156.507004)"><g><path d="M 6.796875 0 L 4.3125 0 L 4.3125 -6.796875 L 4.34375 -7.921875 L 4.375 -9.140625 C 3.96875 -8.734375 3.679688 -8.460938 3.515625 -8.328125 L 2.171875 -7.25 L 0.96875 -8.734375 L 4.765625 -11.75 L 6.796875 -11.75 Z M 6.796875 0 "/></g></g></g><g fill="#ffffff" fill-opacity="1"><g transform="translate(170.811746, 156.507004)"><g><path d="M 4.9375 -7.515625 C 6.070312 -7.515625 6.972656 -7.191406 7.640625 -6.546875 C 8.316406 -5.910156 8.65625 -5.039062 8.65625 -3.9375 C 8.65625 -2.625 8.25 -1.613281 7.4375 -0.90625 C 6.632812 -0.195312 5.476562 0.15625 3.96875 0.15625 C 2.664062 0.15625 1.609375 -0.0507812 0.796875 -0.46875 L 0.796875 -2.625 C 1.222656 -2.394531 1.71875 -2.207031 2.28125 -2.0625 C 2.84375 -1.925781 3.378906 -1.859375 3.890625 -1.859375 C 5.398438 -1.859375 6.15625 -2.476562 6.15625 -3.71875 C 6.15625 -4.90625 5.367188 -5.5 3.796875 -5.5 C 3.515625 -5.5 3.203125 -5.46875 2.859375 -5.40625 C 2.515625 -5.351562 2.238281 -5.296875 2.03125 -5.234375 L 1.03125 -5.765625 L 1.484375 -11.75 L 7.859375 -11.75 L 7.859375 -9.65625 L 3.65625 -9.65625 L 3.4375 -7.34375 L 3.71875 -7.390625 C 4.050781 -7.472656 4.457031 -7.515625 4.9375 -7.515625 Z M 4.9375 -7.515625 "/></g></g></g><g fill="#ffffff" fill-opacity="1"><g transform="translate(182.366627, 156.507004)"><g/></g></g><g fill="#ffffff" fill-opacity="1"><g transform="translate(188.801155, 156.507004)"><g><path d="M 8.421875 -9.125 C 8.421875 -8.394531 8.195312 -7.769531 7.75 -7.25 C 7.300781 -6.738281 6.675781 -6.382812 5.875 -6.1875 L 5.875 -6.140625 C 6.820312 -6.023438 7.539062 -5.738281 8.03125 -5.28125 C 8.519531 -4.820312 8.765625 -4.203125 8.765625 -3.421875 C 8.765625 -2.296875 8.351562 -1.414062 7.53125 -0.78125 C 6.707031 -0.15625 5.535156 0.15625 4.015625 0.15625 C 2.742188 0.15625 1.613281 -0.0507812 0.625 -0.46875 L 0.625 -2.59375 C 1.082031 -2.363281 1.582031 -2.175781 2.125 -2.03125 C 2.675781 -1.882812 3.21875 -1.8125 3.75 -1.8125 C 4.570312 -1.8125 5.175781 -1.945312 5.5625 -2.21875 C 5.957031 -2.5 6.15625 -2.953125 6.15625 -3.578125 C 6.15625 -4.128906 5.929688 -4.519531 5.484375 -4.75 C 5.035156 -4.976562 4.316406 -5.09375 3.328125 -5.09375 L 2.4375 -5.09375 L 2.4375 -7 L 3.34375 -7 C 4.257812 -7 4.925781 -7.117188 5.34375 -7.359375 C 5.757812 -7.597656 5.96875 -8.003906 5.96875 -8.578125 C 5.96875 -9.472656 5.410156 -9.921875 4.296875 -9.921875 C 3.910156 -9.921875 3.519531 -9.851562 3.125 -9.71875 C 2.726562 -9.59375 2.285156 -9.367188 1.796875 -9.046875 L 0.640625 -10.765625 C 1.710938 -11.535156 2.992188 -11.921875 4.484375 -11.921875 C 5.691406 -11.921875 6.648438 -11.675781 7.359375 -11.1875 C 8.066406 -10.695312 8.421875 -10.007812 8.421875 -9.125 Z M 8.421875 -9.125 "/></g></g></g><g fill="#ffffff" fill-opacity="1"><g transform="translate(200.356035, 156.507004)"><g><path d="M 8.421875 -9.125 C 8.421875 -8.394531 8.195312 -7.769531 7.75 -7.25 C 7.300781 -6.738281 6.675781 -6.382812 5.875 -6.1875 L 5.875 -6.140625 C 6.820312 -6.023438 7.539062 -5.738281 8.03125 -5.28125 C 8.519531 -4.820312 8.765625 -4.203125 8.765625 -3.421875 C 8.765625 -2.296875 8.351562 -1.414062 7.53125 -0.78125 C 6.707031 -0.15625 5.535156 0.15625 4.015625 0.15625 C 2.742188 0.15625 1.613281 -0.0507812 0.625 -0.46875 L 0.625 -2.59375 C 1.082031 -2.363281 1.582031 -2.175781 2.125 -2.03125 C 2.675781 -1.882812 3.21875 -1.8125 3.75 -1.8125 C 4.570312 -1.8125 5.175781 -1.945312 5.5625 -2.21875 C 5.957031 -2.5 6.15625 -2.953125 6.15625 -3.578125 C 6.15625 -4.128906 5.929688 -4.519531 5.484375 -4.75 C 5.035156 -4.976562 4.316406 -5.09375 3.328125 -5.09375 L 2.4375 -5.09375 L 2.4375 -7 L 3.34375 -7 C 4.257812 -7 4.925781 -7.117188 5.34375 -7.359375 C 5.757812 -7.597656 5.96875 -8.003906 5.96875 -8.578125 C 5.96875 -9.472656 5.410156 -9.921875 4.296875 -9.921875 C 3.910156 -9.921875 3.519531 -9.851562 3.125 -9.71875 C 2.726562 -9.59375 2.285156 -9.367188 1.796875 -9.046875 L 0.640625 -10.765625 C 1.710938 -11.535156 2.992188 -11.921875 4.484375 -11.921875 C 5.691406 -11.921875 6.648438 -11.675781 7.359375 -11.1875 C 8.066406 -10.695312 8.421875 -10.007812 8.421875 -9.125 Z M 8.421875 -9.125 "/></g></g></g><g fill="#ffffff" fill-opacity="1"><g transform="translate(211.910918, 156.507004)"><g><path d="M 8.828125 -6.734375 C 8.828125 -4.421875 8.335938 -2.691406 7.359375 -1.546875 C 6.390625 -0.410156 4.914062 0.15625 2.9375 0.15625 C 2.238281 0.15625 1.707031 0.117188 1.34375 0.046875 L 1.34375 -1.953125 C 1.800781 -1.835938 2.273438 -1.78125 2.765625 -1.78125 C 3.597656 -1.78125 4.28125 -1.898438 4.8125 -2.140625 C 5.351562 -2.390625 5.765625 -2.773438 6.046875 -3.296875 C 6.328125 -3.816406 6.488281 -4.535156 6.53125 -5.453125 L 6.4375 -5.453125 C 6.125 -4.953125 5.765625 -4.597656 5.359375 -4.390625 C 4.953125 -4.179688 4.441406 -4.078125 3.828125 -4.078125 C 2.804688 -4.078125 2 -4.40625 1.40625 -5.0625 C 0.820312 -5.726562 0.53125 -6.644531 0.53125 -7.8125 C 0.53125 -9.070312 0.882812 -10.066406 1.59375 -10.796875 C 2.3125 -11.523438 3.289062 -11.890625 4.53125 -11.890625 C 5.394531 -11.890625 6.148438 -11.6875 6.796875 -11.28125 C 7.453125 -10.875 7.953125 -10.28125 8.296875 -9.5 C 8.648438 -8.726562 8.828125 -7.804688 8.828125 -6.734375 Z M 4.578125 -9.90625 C 4.054688 -9.90625 3.648438 -9.726562 3.359375 -9.375 C 3.078125 -9.019531 2.9375 -8.507812 2.9375 -7.84375 C 2.9375 -7.269531 3.066406 -6.816406 3.328125 -6.484375 C 3.585938 -6.148438 3.988281 -5.984375 4.53125 -5.984375 C 5.03125 -5.984375 5.457031 -6.148438 5.8125 -6.484375 C 6.175781 -6.816406 6.359375 -7.195312 6.359375 -7.625 C 6.359375 -8.257812 6.191406 -8.796875 5.859375 -9.234375 C 5.523438 -9.679688 5.097656 -9.90625 4.578125 -9.90625 Z M 4.578125 -9.90625 "/></g></g></g><g fill="#ffffff" fill-opacity="1"><g transform="translate(223.465798, 156.507004)"><g><path d="M 9.140625 -2.4375 L 7.734375 -2.4375 L 7.734375 0 L 5.296875 0 L 5.296875 -2.4375 L 0.28125 -2.4375 L 0.28125 -4.171875 L 5.4375 -11.75 L 7.734375 -11.75 L 7.734375 -4.359375 L 9.140625 -4.359375 Z M 5.296875 -4.359375 L 5.296875 -6.359375 C 5.296875 -6.691406 5.304688 -7.171875 5.328125 -7.796875 C 5.359375 -8.429688 5.382812 -8.800781 5.40625 -8.90625 L 5.34375 -8.90625 C 5.144531 -8.46875 4.90625 -8.039062 4.625 -7.625 L 2.46875 -4.359375 Z M 5.296875 -4.359375 "/></g></g></g><g fill="#ffffff" fill-opacity="1"><g transform="translate(235.020679, 156.507004)"><g><path d="M 6.796875 0 L 4.3125 0 L 4.3125 -6.796875 L 4.34375 -7.921875 L 4.375 -9.140625 C 3.96875 -8.734375 3.679688 -8.460938 3.515625 -8.328125 L 2.171875 -7.25 L 0.96875 -8.734375 L 4.765625 -11.75 L 6.796875 -11.75 Z M 6.796875 0 "/></g></g></g><g fill="#ffffff" fill-opacity="1"><g transform="translate(246.575559, 156.507004)"><g><path d="M 4.71875 -11.90625 C 5.84375 -11.90625 6.75 -11.648438 7.4375 -11.140625 C 8.125 -10.628906 8.46875 -9.941406 8.46875 -9.078125 C 8.46875 -8.472656 8.300781 -7.9375 7.96875 -7.46875 C 7.632812 -7 7.097656 -6.578125 6.359375 -6.203125 C 7.234375 -5.734375 7.863281 -5.242188 8.25 -4.734375 C 8.632812 -4.222656 8.828125 -3.660156 8.828125 -3.046875 C 8.828125 -2.078125 8.445312 -1.300781 7.6875 -0.71875 C 6.9375 -0.132812 5.945312 0.15625 4.71875 0.15625 C 3.425781 0.15625 2.410156 -0.113281 1.671875 -0.65625 C 0.941406 -1.207031 0.578125 -1.984375 0.578125 -2.984375 C 0.578125 -3.648438 0.753906 -4.242188 1.109375 -4.765625 C 1.472656 -5.285156 2.046875 -5.742188 2.828125 -6.140625 C 2.160156 -6.566406 1.675781 -7.019531 1.375 -7.5 C 1.082031 -7.976562 0.9375 -8.507812 0.9375 -9.09375 C 0.9375 -9.925781 1.285156 -10.601562 1.984375 -11.125 C 2.679688 -11.644531 3.59375 -11.90625 4.71875 -11.90625 Z M 2.875 -3.125 C 2.875 -2.664062 3.035156 -2.304688 3.359375 -2.046875 C 3.679688 -1.796875 4.125 -1.671875 4.6875 -1.671875 C 5.300781 -1.671875 5.757812 -1.800781 6.0625 -2.0625 C 6.363281 -2.320312 6.515625 -2.671875 6.515625 -3.109375 C 6.515625 -3.472656 6.363281 -3.8125 6.0625 -4.125 C 5.757812 -4.4375 5.269531 -4.769531 4.59375 -5.125 C 3.445312 -4.59375 2.875 -3.925781 2.875 -3.125 Z M 4.703125 -10.09375 C 4.273438 -10.09375 3.929688 -9.984375 3.671875 -9.765625 C 3.410156 -9.546875 3.28125 -9.253906 3.28125 -8.890625 C 3.28125 -8.566406 3.382812 -8.273438 3.59375 -8.015625 C 3.800781 -7.765625 4.175781 -7.507812 4.71875 -7.25 C 5.238281 -7.488281 5.601562 -7.738281 5.8125 -8 C 6.019531 -8.257812 6.125 -8.554688 6.125 -8.890625 C 6.125 -9.265625 5.988281 -9.554688 5.71875 -9.765625 C 5.457031 -9.984375 5.117188 -10.09375 4.703125 -10.09375 Z M 4.703125 -10.09375 "/></g></g></g><g fill="#ffffff" fill-opacity="1"><g transform="translate(258.130445, 156.507004)"><g><path d="M 8.828125 -6.734375 C 8.828125 -4.421875 8.335938 -2.691406 7.359375 -1.546875 C 6.390625 -0.410156 4.914062 0.15625 2.9375 0.15625 C 2.238281 0.15625 1.707031 0.117188 1.34375 0.046875 L 1.34375 -1.953125 C 1.800781 -1.835938 2.273438 -1.78125 2.765625 -1.78125 C 3.597656 -1.78125 4.28125 -1.898438 4.8125 -2.140625 C 5.351562 -2.390625 5.765625 -2.773438 6.046875 -3.296875 C 6.328125 -3.816406 6.488281 -4.535156 6.53125 -5.453125 L 6.4375 -5.453125 C 6.125 -4.953125 5.765625 -4.597656 5.359375 -4.390625 C 4.953125 -4.179688 4.441406 -4.078125 3.828125 -4.078125 C 2.804688 -4.078125 2 -4.40625 1.40625 -5.0625 C 0.820312 -5.726562 0.53125 -6.644531 0.53125 -7.8125 C 0.53125 -9.070312 0.882812 -10.066406 1.59375 -10.796875 C 2.3125 -11.523438 3.289062 -11.890625 4.53125 -11.890625 C 5.394531 -11.890625 6.148438 -11.6875 6.796875 -11.28125 C 7.453125 -10.875 7.953125 -10.28125 8.296875 -9.5 C 8.648438 -8.726562 8.828125 -7.804688 8.828125 -6.734375 Z M 4.578125 -9.90625 C 4.054688 -9.90625 3.648438 -9.726562 3.359375 -9.375 C 3.078125 -9.019531 2.9375 -8.507812 2.9375 -7.84375 C 2.9375 -7.269531 3.066406 -6.816406 3.328125 -6.484375 C 3.585938 -6.148438 3.988281 -5.984375 4.53125 -5.984375 C 5.03125 -5.984375 5.457031 -6.148438 5.8125 -6.484375 C 6.175781 -6.816406 6.359375 -7.195312 6.359375 -7.625 C 6.359375 -8.257812 6.191406 -8.796875 5.859375 -9.234375 C 5.523438 -9.679688 5.097656 -9.90625 4.578125 -9.90625 Z M 4.578125 -9.90625 "/></g></g></g><g fill="#ffffff" fill-opacity="1"><g transform="translate(269.685326, 156.507004)"><g><path d="M 8.8125 -5.875 C 8.8125 -3.820312 8.472656 -2.300781 7.796875 -1.3125 C 7.128906 -0.332031 6.097656 0.15625 4.703125 0.15625 C 3.335938 0.15625 2.3125 -0.347656 1.625 -1.359375 C 0.9375 -2.378906 0.59375 -3.882812 0.59375 -5.875 C 0.59375 -7.945312 0.925781 -9.472656 1.59375 -10.453125 C 2.269531 -11.441406 3.304688 -11.9375 4.703125 -11.9375 C 6.054688 -11.9375 7.078125 -11.421875 7.765625 -10.390625 C 8.460938 -9.367188 8.8125 -7.863281 8.8125 -5.875 Z M 3.0625 -5.875 C 3.0625 -4.4375 3.1875 -3.40625 3.4375 -2.78125 C 3.6875 -2.15625 4.109375 -1.84375 4.703125 -1.84375 C 5.273438 -1.84375 5.691406 -2.15625 5.953125 -2.78125 C 6.210938 -3.414062 6.34375 -4.445312 6.34375 -5.875 C 6.34375 -7.320312 6.210938 -8.359375 5.953125 -8.984375 C 5.691406 -9.617188 5.273438 -9.9375 4.703125 -9.9375 C 4.109375 -9.9375 3.6875 -9.617188 3.4375 -8.984375 C 3.1875 -8.359375 3.0625 -7.320312 3.0625 -5.875 Z M 3.0625 -5.875 "/></g></g></g></svg>